<svg xmlns="http://www.w3.org/2000/svg" viewBox="-79.94 -79.94 478.99 159.88" width="479" height="159.9" fill="none" role="img" aria-label="Automera"><title>Automera</title><g transform="translate(0,0) scale(1.5)"><path d="M11.66 18.66A22 22 0 1 1 21.99 0.77" fill="none" stroke="#2563EB" stroke-width="5" stroke-linecap="round"/><path d="M30.6 -1.93L21.61 11.76L13.61 -2.53Z" fill="#2563EB"/><circle r="6" fill="#1E3A8A"/></g><g transform="translate(68.327,21.261) scale(0.065723,-0.065723)" fill="#0A0A0A"><path transform="translate(0,0)" d="M225 -12Q141 -12 90.0 26.0Q39 64 39 134Q39 203 82.0 242.0Q125 281 213 298L390 333Q390 447 287 447Q241 447 214.0 425.5Q187 404 178 364L48 370Q64 454 126.0 500.0Q188 546 287 546Q401 546 459.5 488.5Q518 431 518 324V130Q518 109 525.5 101.0Q533 93 548 93H565V0Q548 -4 518 -4Q475 -4 445.0 14.0Q415 32 407 81V82Q387 40 338.5 14.0Q290 -12 225 -12ZM251 81Q315 81 352.5 118.0Q390 155 390 216V246L252 218Q209 209 190.5 191.5Q172 174 172 146Q172 81 251 81Z"/><path transform="translate(547,0)" d="M246 -12Q164 -12 117.0 41.0Q70 94 70 190V534H198V222Q198 154 220.5 123.0Q243 92 289 92Q340 92 369.0 126.5Q398 161 398 227V534H526V0H409L407 87Q365 -12 246 -12Z"/><path transform="translate(1096,0)" d="M284 0Q204 0 166.5 36.5Q129 73 129 153V435H45V534H129V659H257V534H398V435H257V165Q257 127 273.5 113.0Q290 99 323 99H398V0Z"/><path transform="translate(1484,0)" d="M302 -12Q223 -12 163.5 22.5Q104 57 71.5 119.5Q39 182 39 267Q39 352 71.5 414.5Q104 477 163.5 511.5Q223 546 302 546Q381 546 440.0 511.5Q499 477 531.5 414.5Q564 352 564 267Q564 182 531.5 119.5Q499 57 440.0 22.5Q381 -12 302 -12ZM302 92Q363 92 397.0 138.0Q431 184 431 267Q431 350 397.0 396.0Q363 442 302 442Q240 442 206.0 396.0Q172 350 172 267Q172 184 206.0 138.0Q240 92 302 92Z"/><path transform="translate(2052,0)" d="M70 0V534H186L189 445Q209 493 247.5 519.5Q286 546 336 546Q395 546 434.5 517.0Q474 488 491 436Q509 490 548.5 518.0Q588 546 644 546Q727 546 774.5 494.0Q822 442 822 343V0H694V310Q694 442 603 442Q557 442 531.0 406.5Q505 371 505 306V0H386V306Q386 371 366.0 406.5Q346 442 297 442Q251 442 224.5 406.0Q198 370 198 306V0Z"/><path transform="translate(2906,0)" d="M301 -12Q221 -12 162.0 22.5Q103 57 71.0 120.0Q39 183 39 267Q39 351 71.0 414.0Q103 477 161.5 511.5Q220 546 298 546Q374 546 431.0 512.0Q488 478 519.5 414.0Q551 350 551 260V231H172Q175 161 210.0 125.5Q245 90 302 90Q389 90 413 164L544 156Q522 78 457.5 33.0Q393 -12 301 -12ZM172 317H419Q414 382 381.5 413.5Q349 445 298 445Q246 445 213.0 412.0Q180 379 172 317Z"/><path transform="translate(3462,0)" d="M70 0V534H190L193 430Q209 484 240.0 509.0Q271 534 321 534H370V424H320Q259 424 228.5 396.5Q198 369 198 308V0Z"/><path transform="translate(3810,0)" d="M225 -12Q141 -12 90.0 26.0Q39 64 39 134Q39 203 82.0 242.0Q125 281 213 298L390 333Q390 447 287 447Q241 447 214.0 425.5Q187 404 178 364L48 370Q64 454 126.0 500.0Q188 546 287 546Q401 546 459.5 488.5Q518 431 518 324V130Q518 109 525.5 101.0Q533 93 548 93H565V0Q548 -4 518 -4Q475 -4 445.0 14.0Q415 32 407 81V82Q387 40 338.5 14.0Q290 -12 225 -12ZM251 81Q315 81 352.5 118.0Q390 155 390 216V246L252 218Q209 209 190.5 191.5Q172 174 172 146Q172 81 251 81Z"/></g></svg>